# xmcd
#
# Track frame offsets:
#	150
#	15601
#	31202
#	46953
#	62329
#	81980
#	97131
#	114682
#	130733
#	148209
#
# Disc length: 2263 seconds
#
# Revision: 1
# Processed by: cddbd v1.5.2PL0 Copyright (c) Steve Scherf et al.
# Submitted via: audiograbber 1.83.01
#
DISCID=8608d50a
DTITLE=Eddie Rabbitt - Loveline
DYEAR=1979
DGENRE=Country
TTITLE0=Pour Me Another Tequila
TTITLE1=Gone Too Far
TTITLE2=Loveline
TTITLE3=One And Only One
TTITLE4=Suspicions
TTITLE5=So Fine
TTITLE6=I Will Never Let You Go Again
TTITLE7=Amazing Love
TTITLE8=It's Always Like The First Time
TTITLE9=I Don't Wanna Make Love With Anyone
EXTD=
EXTT0=
EXTT1=
EXTT2=
EXTT3=
EXTT4=
EXTT5=
EXTT6=
EXTT7=
EXTT8=
EXTT9=
PLAYORDER=
